<svg width="36" height="1096" viewBox="0 0 36 1096" fill="none" xmlns="http://www.w3.org/2000/svg">
<path d="M17.651 983.186L35.2521 978L30.1163 995.651L35.2521 1013.25L17.651 1008.12L0 1013.25L5.1856 995.651L0 978L17.651 983.186Z" fill="#B9FF66"/>
<path d="M17.651 5.1856L35.2521 0L30.1163 17.651L35.2521 35.2521L17.651 30.1163L0 35.2521L5.1856 17.651L0 0L17.651 5.1856Z" fill="#B9FF66"/>
<path d="M17.651 320.186L35.2521 315L30.1163 332.651L35.2521 350.252L17.651 345.116L0 350.252L5.1856 332.651L0 315L17.651 320.186Z" fill="#B9FF66"/>
<path d="M17.651 635.186L35.2521 630L30.1163 647.651L35.2521 665.252L17.651 660.116L0 665.252L5.1856 647.651L0 630L17.651 635.186Z" fill="#B9FF66"/>
<line x1="17.5" y1="18" x2="17.5" y2="1096" stroke="#B9FF66"/>
</svg>
