<svg width="499" height="966" viewBox="0 0 499 966" fill="none" xmlns="http://www.w3.org/2000/svg">
<path d="M17.651 625.186L35.2521 620L30.1163 637.651L35.2521 655.252L17.651 650.116L0 655.252L5.1856 637.651L0 620L17.651 625.186Z" fill="#B9FF66"/>
<path d="M17.651 5.1856L35.2521 0L30.1163 17.651L35.2521 35.2521L17.651 30.1163L0 35.2521L5.1856 17.651L0 0L17.651 5.1856Z" fill="#B9FF66"/>
<path d="M480.651 315.186L498.252 310L493.116 327.651L498.252 345.252L480.651 340.116L463 345.252L468.186 327.651L463 310L480.651 315.186Z" fill="#B9FF66"/>
<path d="M480.651 935.186L498.252 930L493.116 947.651L498.252 965.252L480.651 960.116L463 965.252L468.186 947.651L463 930L480.651 935.186Z" fill="#B9FF66"/>
<path d="M17 64V206C17 222.569 30.4315 236 47 236H451C467.569 236 481 249.431 481 266V515C481 531.569 467.569 545 451 545H47C30.4315 545 17 558.431 17 575V825C17 841.569 30.4315 855 47 855H451C467.569 855 481 868.431 481 885V954" stroke="#B9FF66"/>
</svg>
