<svg width="239" height="240" viewBox="0 0 239 240" fill="none" xmlns="http://www.w3.org/2000/svg">
<path d="M111.359 2.20487L135.503 62.33L135.676 62.7601L136.118 62.6204L197.666 43.1703L165.939 99.6295L165.714 100.031L166.095 100.289L219.61 136.522L155.901 146.794L155.445 146.867L155.482 147.327L160.661 211.956L112.948 168.31L112.606 167.997L112.268 168.316L65.2172 212.674L69.4234 147.974L69.4534 147.514L68.9966 147.447L5.14029 138.134L58.1046 101.101L58.4816 100.837L58.2502 100.439L25.678 44.4636L87.5114 62.9859L87.9554 63.1189L88.1217 62.6863L111.359 2.20487Z" stroke="#B9FF66"/>
<circle cx="183" cy="113" r="55.5" fill="#B9FF66" stroke="black"/>
<ellipse cx="164.333" cy="100.794" rx="9.33333" ry="17.9487" fill="black"/>
<ellipse cx="201.308" cy="100.794" rx="8.97436" ry="17.9487" fill="black"/>
<path d="M74.044 163.966L93.64 128.001L113.393 163.966L149.28 183.641L113.393 203.315L93.64 239.281L74.044 203.315L38 183.641L74.044 163.966Z" fill="white"/>
</svg>
