<svg width="250" height="39" viewBox="0 0 250 39" fill="none" xmlns="http://www.w3.org/2000/svg">
<mask id="path-1-inside-1_932_836" fill="white">
<path d="M0 20C0 8.95431 8.9543 0 20 0H230C241.046 0 250 8.95431 250 20V39H0V20Z"/>
</mask>
<path d="M-1 20C-1 8.40202 8.40202 -1 20 -1H230C241.598 -1 251 8.40202 251 20H249C249 9.50659 240.493 1 230 1H20C9.50659 1 1 9.50659 1 20H-1ZM250 39H0H250ZM-1 39V20C-1 8.40202 8.40202 -1 20 -1V1C9.50659 1 1 9.50659 1 20V39H-1ZM230 -1C241.598 -1 251 8.40202 251 20V39H249V20C249 9.50659 240.493 1 230 1V-1Z" fill="black" mask="url(#path-1-inside-1_932_836)"/>
</svg>
